<svg width="24" height="24" viewBox="0 0 24 24" fill="none" xmlns="http://www.w3.org/2000/svg">
<path d="M16.6499 7.31249H6.97493C6.52493 7.31249 6.11243 7.68749 6.11243 8.17499C6.11243 8.66249 6.48743 9.03749 6.97493 9.03749H16.6874C17.1374 9.03749 17.5499 8.66249 17.5499 8.17499C17.5499 7.68749 17.1374 7.31249 16.6499 7.31249Z" fill="#637381"/>
<path d="M14.6999 11.8875H6.97493C6.52493 11.8875 6.11243 12.2625 6.11243 12.75C6.11243 13.2375 6.48743 13.6125 6.97493 13.6125H14.6999C15.1499 13.6125 15.5624 13.2375 15.5624 12.75C15.5624 12.2625 15.1499 11.8875 14.6999 11.8875Z" fill="#637381"/>
<path d="M20.9999 2.96249H2.99995C1.72495 2.96249 0.637451 4.01249 0.637451 5.32499V19.4625C0.637451 20.0625 0.974951 20.625 1.53745 20.8875C1.76245 21 1.98745 21.0375 2.21245 21.0375C2.58745 21.0375 2.92495 20.925 3.22495 20.6625L6.41245 18.0375H20.9999C22.275 18.0375 23.3624 16.9875 23.3624 15.675V5.32499C23.3624 4.01249 22.275 2.96249 20.9999 2.96249ZM21.6749 15.675C21.6749 16.05 21.3749 16.35 20.9999 16.35H6.11245C5.92495 16.35 5.73745 16.425 5.58745 16.5375L2.36245 19.2V5.32499C2.36245 4.94999 2.66245 4.64999 3.03745 4.64999H21.0374C21.4124 4.64999 21.7125 4.94999 21.7125 5.32499V15.675H21.6749Z" fill="#637381"/>
</svg>
