<svg width="36" height="36" viewBox="0 0 36 36" fill="none" xmlns="http://www.w3.org/2000/svg">
<path d="M27.6189 32.5125H23.3439C22.6689 32.5125 22.1064 33.075 22.1064 33.75C22.1064 34.425 22.6689 34.9875 23.3439 34.9875H27.6189C28.2939 34.9875 28.8564 34.425 28.8564 33.75C28.8564 33.075 28.2939 32.5125 27.6189 32.5125Z" fill="white"/>
<path d="M19.9688 32.5125H15.8063C15.1313 32.5125 14.5688 33.075 14.5688 33.75C14.5688 34.425 15.1313 34.9875 15.8063 34.9875H19.9688C20.6438 34.9875 21.2063 34.425 21.2063 33.75C21.2063 33.075 20.7001 32.5125 19.9688 32.5125Z" fill="white"/>
<path d="M27.9563 9.90005H26.55V7.8188C26.55 7.1438 25.9875 6.5813 25.3125 6.5813C24.6375 6.5813 24.075 7.1438 24.075 7.8188V9.90005H12.8812C10.9687 9.90005 9.39375 11.475 9.39375 13.3875V23.5688H7.9875C7.3125 23.5688 6.75 24.1313 6.75 24.8063C6.75 25.4813 7.3125 26.0438 7.9875 26.0438H9.39375V28.125C9.39375 28.8 9.95625 29.3625 10.6312 29.3625C11.3062 29.3625 11.8688 28.8 11.8688 28.125V26.0438H23.0063C24.9188 26.0438 26.4937 24.4688 26.4937 22.5563V12.4313H27.9C28.575 12.4313 29.1375 11.8688 29.1375 11.1938C29.1375 10.5188 28.6313 9.90005 27.9563 9.90005ZM24.0188 22.6125C24.0188 23.1188 23.625 23.5688 23.0625 23.5688H11.9812V13.3875C11.9812 12.8813 12.375 12.4313 12.9375 12.4313H24.075V22.6125H24.0188Z" fill="white"/>
<path d="M31.2752 12.3188C31.7252 12.3188 32.1189 12.7126 32.1189 13.1626C32.1189 13.8376 32.6814 14.4001 33.3564 14.4001C34.0314 14.4001 34.5939 13.8376 34.5939 13.1626C34.5939 11.3063 33.0752 9.7876 31.2189 9.7876C30.5439 9.7876 29.9814 10.3501 29.9814 11.0251C29.9814 11.7001 30.6002 12.3188 31.2752 12.3188Z" fill="white"/>
<path d="M33.3564 15.2439C32.6814 15.2439 32.1189 15.8064 32.1189 16.4814V20.6439C32.1189 21.3189 32.6814 21.8814 33.3564 21.8814C34.0314 21.8814 34.5939 21.3189 34.5939 20.6439V16.4814C34.6502 15.8064 34.0876 15.2439 33.3564 15.2439Z" fill="white"/>
<path d="M33.3564 22.7812C32.6814 22.7812 32.1189 23.3438 32.1189 24.0188V28.1813C32.1189 28.8563 32.6814 29.4188 33.3564 29.4188C34.0314 29.4188 34.5939 28.8563 34.5939 28.1813V24.0188C34.6502 23.3438 34.0876 22.7812 33.3564 22.7812Z" fill="white"/>
<path d="M33.3563 30.375C32.6813 30.375 32.1188 30.9375 32.1188 31.6125C32.1188 32.0625 31.7251 32.4563 31.2751 32.4563C30.6001 32.4563 30.0376 33.0188 30.0376 33.6938C30.0376 34.3688 30.6001 34.9312 31.2751 34.9312C33.1313 34.9312 34.6501 33.4125 34.6501 31.5562C34.6501 30.9937 34.0876 30.375 33.3563 30.375Z" fill="white"/>
<path d="M12.7689 32.5126C12.3189 32.5126 11.9252 32.1189 11.9252 31.6689C11.9252 30.9939 11.3627 30.4314 10.6877 30.4314C10.0127 30.4314 9.4502 30.9939 9.4502 31.6689C9.4502 33.5251 10.9689 35.0439 12.8252 35.0439C13.5002 35.0439 14.0627 34.4814 14.0627 33.8064C14.0627 33.1314 13.5002 32.5126 12.7689 32.5126Z" fill="white"/>
<path d="M8.3813 3.48745H12.6563C13.3313 3.48745 13.8938 2.92495 13.8938 2.24995C13.8938 1.57495 13.3313 1.01245 12.6563 1.01245H8.3813C7.7063 1.01245 7.1438 1.57495 7.1438 2.24995C7.1438 2.92495 7.7063 3.48745 8.3813 3.48745Z" fill="white"/>
<path d="M16.0314 3.48745H20.1939C20.8689 3.48745 21.4314 2.92495 21.4314 2.24995C21.4314 1.57495 20.8689 1.01245 20.1939 1.01245H16.0314C15.3564 1.01245 14.7939 1.57495 14.7939 2.24995C14.7939 2.92495 15.3002 3.48745 16.0314 3.48745Z" fill="white"/>
<path d="M4.725 23.6813C4.275 23.6813 3.88125 23.2876 3.88125 22.8376C3.88125 22.1626 3.31875 21.6001 2.64375 21.6001C1.96875 21.6001 1.40625 22.1626 1.40625 22.8376C1.40625 24.6938 2.925 26.2126 4.78125 26.2126C5.45625 26.2126 6.01875 25.6501 6.01875 24.9751C6.01875 24.3001 5.4 23.6813 4.725 23.6813Z" fill="white"/>
<path d="M2.64397 20.7564C3.31897 20.7564 3.88147 20.1939 3.88147 19.5189V15.3564C3.88147 14.6814 3.31897 14.1189 2.64397 14.1189C1.96897 14.1189 1.40647 14.6814 1.40647 15.3564V19.5189C1.35022 20.1939 1.91272 20.7564 2.64397 20.7564Z" fill="white"/>
<path d="M2.64397 13.2188C3.31897 13.2188 3.88147 12.6563 3.88147 11.9813V7.8188C3.88147 7.1438 3.31897 6.5813 2.64397 6.5813C1.96897 6.5813 1.40647 7.1438 1.40647 7.8188V11.9813C1.35022 12.6563 1.91272 13.2188 2.64397 13.2188Z" fill="white"/>
<path d="M4.7251 0.956299C2.86885 0.956299 1.3501 2.47505 1.3501 4.3313C1.3501 5.0063 1.9126 5.5688 2.5876 5.5688C3.2626 5.5688 3.8251 5.0063 3.8251 4.3313C3.8251 3.8813 4.21885 3.48755 4.66885 3.48755C5.34385 3.48755 5.90635 2.92505 5.90635 2.25005C5.90635 1.57505 5.4001 0.956299 4.7251 0.956299Z" fill="white"/>
<path d="M23.2312 3.48755C23.6812 3.48755 24.075 3.8813 24.075 4.3313C24.075 5.0063 24.6375 5.5688 25.3125 5.5688C25.9875 5.5688 26.55 5.0063 26.55 4.3313C26.55 2.47505 25.0312 0.956299 23.175 0.956299C22.5 0.956299 21.9375 1.57505 21.9375 2.25005C21.9375 2.92505 22.5 3.48755 23.2312 3.48755Z" fill="white"/>
</svg>
