<svg width="35" height="34" viewBox="0 0 35 34" fill="none" xmlns="http://www.w3.org/2000/svg">
<path d="M30.2625 24.5375L21.4313 7.9437C22.2188 7.09995 22.725 5.97495 22.725 4.73745C22.725 2.14995 20.5875 0.0124512 18 0.0124512C15.4125 0.0124512 13.275 2.14995 13.275 4.73745C13.275 5.97495 13.7813 7.09995 14.5688 7.9437L5.7375 24.5375C5.7375 24.5375 5.7375 24.5375 5.68125 24.5375C3.09375 24.5375 0.956253 26.675 0.956253 29.2625C0.956253 31.85 3.09375 33.9875 5.68125 33.9875C7.7625 33.9875 9.5625 32.6375 10.1813 30.725H25.7625C26.3813 32.6375 28.1813 33.9875 30.2625 33.9875C32.85 33.9875 34.9875 31.85 34.9875 29.2625C34.9875 26.675 32.9063 24.5375 30.2625 24.5375ZM18 2.5437C19.2375 2.5437 20.1938 3.5562 20.1938 4.73745C20.1938 5.9187 19.1813 6.9312 18 6.9312C16.8188 6.9312 15.8063 5.9187 15.8063 4.73745C15.8063 3.5562 16.7625 2.5437 18 2.5437ZM5.7375 31.5125C4.5 31.5125 3.54375 30.5 3.54375 29.3187C3.54375 28.1375 4.55625 27.125 5.7375 27.125C6.91875 27.125 7.93125 28.1375 7.93125 29.3187C7.93125 30.5 6.91875 31.5125 5.7375 31.5125ZM25.65 28.1937H10.35C10.0688 26.9562 9.28125 25.8875 8.26875 25.2687L16.7625 9.2937C17.1563 9.4062 17.6063 9.46245 18.0563 9.46245C18.5063 9.46245 18.9563 9.4062 19.35 9.2937L27.8438 25.2687C26.7188 25.9437 25.9313 26.9562 25.65 28.1937ZM30.2625 31.5125C29.025 31.5125 28.0688 30.5 28.0688 29.3187C28.0688 28.1375 29.0813 27.125 30.2625 27.125C31.4438 27.125 32.4563 28.1375 32.4563 29.3187C32.4563 30.5 31.5 31.5125 30.2625 31.5125Z" fill="white"/>
</svg>
