<?xml version="1.0" encoding="UTF-8"?>
<svg id="Capa_1" data-name="Capa 1" xmlns="http://www.w3.org/2000/svg" viewBox="0 0 854.6 853.92">
  <defs>
    <style>
      .cls-1 {
        fill: #fff;
        stroke-width: 0px;
      }
    </style>
  </defs>
  <path class="cls-1" d="M605.67,248.42c-49.2-49.21-113.84-73.81-178.47-73.81s-129.26,24.6-178.47,73.81c-98.41,98.41-98.41,258.53,0,356.94,21.31,21.31,45.76,38.33,72.31,50.64l6.7-64.89c19.71-4.3,54.34-8.89,93.93-12.09,46.39-3.75,86.36-4.51,103.65-2.4l8.18,79.28c14.49-6.74,28.36-14.89,41.43-24.36l48.36,13.7h0l14.42,4.08-16.91-43.87-4.44-11.52c40.87-46.15,63.25-104.86,63.25-167.04,0-67.42-26.25-130.8-73.93-178.47ZM388.74,267.73c0-4.24,17.25-7.68,38.53-7.68s37.78,3.3,38.46,7.43c.01,0,.02,0,.04,0l.03.25h0s4.33,41.97,4.33,41.97c-1.99-.06-4.21-.1-6.78-.1-10.86,0-24.92.65-39.6,1.84-15.26,1.23-29.38,2.89-40,4.65l4.99-48.35ZM378.6,329.33c10.27-2.06,26.92-4.21,45.82-5.74,21.99-1.78,41.15-2.24,50.78-1.42l5.4,52.36c-2.35-.07-4.97-.11-7.98-.11-13.59,0-31.21.82-49.6,2.3-19.05,1.54-36.66,3.6-49.9,5.78l5.49-53.18ZM366.56,396c12.94-2.57,33.67-5.23,57.13-7.12,27.31-2.21,51.13-2.8,63.38-1.82l7.24,70.12c-3-.09-6.4-.15-10.31-.15-16.95,0-38.92,1.02-61.87,2.87-24.1,1.95-46.35,4.56-62.91,7.32l7.35-71.22ZM498.19,561.33c-21.14,0-48.56,1.27-77.2,3.59-30.26,2.44-58.17,5.73-78.84,9.18l9.41-91.22c16.2-3.2,42.02-6.5,71.22-8.86,33.99-2.74,63.67-3.49,79.04-2.3l9.27,89.79c-3.74-.12-7.98-.19-12.9-.19Z"/>
  <path class="cls-1" d="M623.08,0H231.52C103.84,0,.34,103.5.34,231.18v391.56c0,127.68,103.5,231.18,231.18,231.18h391.55c127.68,0,231.18-103.5,231.18-231.18V231.18C854.26,103.5,750.75,0,623.08,0ZM705.61,711.27l-123.53-35c-46.04,28.72-99.27,44.1-154.89,44.1-78.39,0-152.09-30.53-207.52-85.96-114.43-114.43-114.43-300.61,0-415.04,114.43-114.43,300.61-114.43,415.04,0,55.43,55.43,85.96,129.13,85.96,207.52,0,63.68-20.15,124.27-57.43,174.48l42.36,109.89Z"/>
</svg>