<?xml version="1.0" encoding="UTF-8"?>
<svg id="Capa_1" data-name="Capa 1" xmlns="http://www.w3.org/2000/svg" viewBox="0 0 2004.02 453.43">
  <defs>
    <style>
      .cls-1, .cls-2 {
        fill: #fff;
        stroke-width: 0px;
      }

      .cls-2 {
        opacity: 0;
      }
    </style>
  </defs>
  <g>
    <path class="cls-1" d="M736.7,236.75c-1.94-.82-3.94-1.53-5.98-2.2,8.5-4.49,15.32-10.54,20.41-18.19,5.65-8.47,8.47-18.45,8.47-29.95,0-17.14-6.95-30.94-20.85-41.4-13.91-10.45-34.66-15.68-62.25-15.68h-107.26v219.53h113.53c28.85,0,50.7-5.28,65.55-15.84,14.84-10.55,22.27-25.25,22.27-44.06,0-12.75-2.98-23.52-8.94-32.3-5.96-8.78-14.27-15.42-24.93-19.92ZM670.21,167.6c12.33,0,21.8,2.15,28.38,6.43,6.59,4.29,9.88,10.72,9.88,19.29s-3.29,15.32-9.88,19.6c-6.58,4.29-16.05,6.43-28.38,6.43h-50.49v-51.75h50.49ZM708.95,304.18c-6.8,4.29-16.78,6.43-29.95,6.43h-59.27v-54.26h59.27c13.17,0,23.15,2.25,29.95,6.74,6.79,4.5,10.19,11.34,10.19,20.54s-3.4,16.26-10.19,20.54Z"/>
    <path class="cls-1" d="M933.65,195.83c-14.22-12.12-34.18-18.19-59.9-18.19-13.38,0-26.55,1.78-39.52,5.33-12.97,3.56-24.04,8.58-33.24,15.05l17.56,34.18c6.06-4.81,13.43-8.62,22.11-11.45,8.68-2.82,17.51-4.23,26.5-4.23,13.17,0,22.94,2.93,29.32,8.78,6.38,5.85,9.57,14.01,9.57,24.46h-38.89c-17.15,0-31.05,2.15-41.71,6.43-10.66,4.29-18.46,10.19-23.37,17.72-4.92,7.53-7.37,16.31-7.37,26.34s2.51,18.3,7.53,26.03c5.02,7.74,12.23,13.85,21.64,18.35,9.41,4.49,20.7,6.74,33.87,6.74,14.84,0,26.97-2.82,36.38-8.47,6.37-3.82,11.37-8.88,15.05-15.1v21.06h45.79v-96.28c0-25.72-7.11-44.64-21.33-56.77ZM891.94,312.65c-6.48,3.87-13.8,5.8-21.95,5.8-8.58,0-15.32-1.83-20.23-5.49-4.92-3.65-7.37-8.62-7.37-14.9,0-5.65,2.14-10.35,6.43-14.11,4.28-3.76,12.18-5.65,23.68-5.65h33.56v17.25c-2.93,7.53-7.63,13.23-14.11,17.09Z"/>
    <path class="cls-1" d="M1141.73,188.3c-12.65-7.11-26.92-10.66-42.81-10.66-14.22,0-26.66,3.14-37.32,9.41-5.02,2.95-9.5,6.66-13.48,11.05v-81.93h-48.93v232.7h46.73v-19.58c4.22,5.13,9.13,9.37,14.74,12.68,10.66,6.27,23.41,9.41,38.26,9.41,15.89,0,30.16-3.61,42.81-10.82,12.65-7.21,22.68-17.3,30.11-30.26,7.42-12.96,11.13-28.23,11.13-45.79s-3.71-33.14-11.13-46.1c-7.42-12.96-17.46-23-30.11-30.11ZM1127.62,289.44c-3.87,7.01-8.99,12.39-15.37,16.15-6.38,3.76-13.64,5.65-21.8,5.65s-15.47-1.88-21.95-5.65c-6.48-3.76-11.6-9.14-15.37-16.15-3.76-7-5.65-15.31-5.65-24.93s1.88-18.19,5.65-25.09c3.76-6.9,8.88-12.23,15.37-15.99,6.48-3.76,13.8-5.65,21.95-5.65s15.42,1.88,21.8,5.65c6.38,3.76,11.5,9.09,15.37,15.99,3.87,6.9,5.8,15.26,5.8,25.09s-1.93,17.93-5.8,24.93Z"/>
    <path class="cls-1" d="M1337.74,188.14c-13.28-7-28.18-10.51-44.69-10.51s-32.51,3.71-46.1,11.13c-13.59,7.42-24.3,17.67-32.15,30.73-7.84,13.07-11.76,28.07-11.76,45s3.97,31.63,11.92,44.69c7.94,13.07,19.18,23.36,33.71,30.89,14.53,7.53,31.41,11.29,50.65,11.29,15.26,0,28.75-2.35,40.46-7.06,11.71-4.7,21.43-11.45,29.17-20.23l-26.03-28.23c-5.65,5.44-11.87,9.52-18.66,12.23-6.8,2.72-14.69,4.08-23.68,4.08-10.04,0-18.77-1.83-26.19-5.49-7.42-3.65-13.17-8.99-17.25-15.99-2.21-3.8-3.8-7.94-4.82-12.39h127.6c.21-2.09.42-4.34.63-6.74.21-2.4.31-4.55.31-6.43,0-18.19-3.87-33.82-11.6-46.89-7.74-13.06-18.25-23.1-31.52-30.11ZM1271.26,220.13c6.37-3.66,13.74-5.49,22.11-5.49s15.68,1.83,21.95,5.49c6.27,3.66,11.18,8.73,14.74,15.21,2.36,4.3,3.92,9.12,4.71,14.43h-83.06c.81-5.25,2.35-10.02,4.65-14.27,3.55-6.59,8.52-11.71,14.9-15.37Z"/>
    <rect class="cls-1" x="1413.48" y="116.17" width="48.93" height="232.7"/>
    <path class="cls-1" d="M1554.29,109.42c-5.65-4.91-12.97-7.37-21.95-7.37s-16.31,2.62-21.95,7.84c-5.64,5.23-8.47,11.71-8.47,19.44s2.82,14.22,8.47,19.44c5.65,5.23,12.96,7.84,21.95,7.84s16.57-2.67,22.11-8c5.54-5.33,8.31-12.07,8.31-20.23,0-7.73-2.82-14.06-8.47-18.97Z"/>
    <rect class="cls-1" x="1507.88" y="180.14" width="48.93" height="168.73"/>
    <path class="cls-1" d="M1740.74,185.63c-10.56-5.33-22.53-8-35.91-8-14.43,0-27.28,3.03-38.57,9.09-6.67,3.58-12.41,8.1-17.25,13.51v-20.09h-46.73v168.73h48.93v-83.42c0-10.45,1.72-19.02,5.17-25.72,3.45-6.69,8.26-11.65,14.43-14.9,6.16-3.24,13.12-4.86,20.85-4.86,10.87,0,19.29,3.24,25.25,9.72,5.96,6.48,8.94,16.52,8.94,30.11v89.07h48.92v-96.59c0-17.14-3.03-31.2-9.09-42.18-6.07-10.98-14.38-19.13-24.93-24.46Z"/>
    <polygon class="cls-1" points="1944.74 348.87 2004.02 348.87 1927.47 251.58 1997.74 180.14 1939.41 180.14 1867.91 247.94 1867.91 116.17 1818.98 116.17 1818.98 348.87 1867.91 348.87 1867.91 306.05 1891.54 282.81 1944.74 348.87"/>
  </g>
  <g>
    <path class="cls-2" d="M227.31,454.08c-60.74,0-117.85-23.66-160.81-66.61-88.67-88.67-88.67-232.94,0-321.61,88.67-88.67,232.94-88.67,321.61,0,42.95,42.95,66.61,100.06,66.61,160.81s-23.66,117.85-66.61,160.81c-42.95,42.95-100.06,66.61-160.81,66.61Z"/>
    <g>
      <path class="cls-1" d="M420.03,226.67c0-51.48-20.05-99.87-56.45-136.27-75.14-75.14-197.4-75.14-272.54,0-75.14,75.14-75.14,197.4,0,272.54,36.4,36.4,84.79,56.45,136.27,56.45,36.52,0,71.48-10.1,101.71-28.96l81.11,22.98-27.82-72.16c24.48-32.97,37.71-72.76,37.71-114.58ZM227.3,392.41h.02-.02ZM356.08,370.05h0s-31.76-9-31.76-9c-8.58,6.22-17.69,11.57-27.21,16l-5.37-52.06c-11.36-1.39-37.6-.88-68.06,1.58-26,2.1-48.74,5.11-61.68,7.94l-4.4,42.61c-17.43-8.09-33.49-19.26-47.48-33.25-64.62-64.62-64.62-169.77,0-234.39,32.31-32.31,74.75-48.47,117.19-48.47s84.88,16.16,117.19,48.47c31.31,31.3,48.55,72.92,48.55,117.19,0,40.83-14.69,79.38-41.53,109.69l2.92,7.57,11.11,28.81-9.47-2.68Z"/>
      <path class="cls-1" d="M224.42,257.62c-19.17,1.55-36.13,3.72-46.77,5.82l-6.18,59.9c13.57-2.27,31.9-4.43,51.77-6.03,18.81-1.52,36.81-2.35,50.69-2.35,3.23,0,6.01.05,8.47.12l-6.08-58.96c-10.09-.78-29.58-.29-51.9,1.51Z"/>
      <path class="cls-1" d="M264.61,246.46c2.57,0,4.8.04,6.77.1l-4.75-46.05c-8.04-.64-23.68-.25-41.62,1.2-15.4,1.24-29.01,2.99-37.51,4.68l-4.83,46.77c10.88-1.81,25.48-3.53,41.31-4.81,15.07-1.22,29.49-1.89,40.62-1.89Z"/>
      <path class="cls-1" d="M257.15,192.22c1.98,0,3.7.03,5.24.07l-3.55-34.38c-6.32-.53-18.91-.23-33.35.93-12.41,1-23.34,2.41-30.09,3.77l-3.6,34.92c8.7-1.43,20.26-2.79,32.77-3.8,12.08-.97,23.65-1.51,32.57-1.51Z"/>
      <path class="cls-1" d="M251.06,149.65c1.69,0,3.14.02,4.45.07l-2.84-27.56h0s0,0,0,0l-.02-.16s-.02,0-.03,0c-.45-2.71-11.57-4.88-25.26-4.88s-25.3,2.26-25.3,5.04l-3.28,31.75c6.97-1.15,16.24-2.24,26.26-3.05,9.64-.78,18.88-1.21,26-1.21Z"/>
    </g>
  </g>
</svg>