<?xml version="1.0" encoding="UTF-8"?>
<svg id="Capa_1" data-name="Capa 1" xmlns="http://www.w3.org/2000/svg" viewBox="0 0 2004.02 453.43">
  <defs>
    <style>
      .cls-1 {
        stroke-width: 0px;
      }
    </style>
  </defs>
  <path class="cls-1" d="M321.43,131.91c-26.13-26.13-60.45-39.19-94.77-39.19s-68.64,13.06-94.77,39.19c-52.26,52.26-52.26,137.28,0,189.54,11.32,11.32,24.3,20.35,38.4,26.89l3.56-34.46c10.46-2.28,28.85-4.72,49.88-6.42,24.63-1.99,45.85-2.4,55.04-1.27l4.34,42.1c7.7-3.58,15.06-7.9,22-12.94l25.68,7.28,7.66,2.17-8.98-23.3-2.36-6.12c21.7-24.51,33.58-55.68,33.58-88.7,0-35.8-13.94-69.46-39.26-94.77ZM206.24,142.16c0-2.25,9.16-4.08,20.46-4.08s20.06,1.75,20.42,3.94c0,0,.01,0,.02,0v.13s.01,0,.01,0h0s2.3,22.28,2.3,22.28c-1.05-.03-2.23-.05-3.6-.05-5.77,0-13.23.35-21.03.98-8.1.65-15.6,1.54-21.24,2.47l2.65-25.67ZM200.86,174.87c5.45-1.1,14.3-2.24,24.33-3.05,11.68-.94,21.85-1.19,26.97-.76l2.87,27.8c-1.25-.04-2.64-.06-4.24-.06-7.22,0-16.57.43-26.34,1.22-10.11.82-19.47,1.91-26.5,3.07l2.91-28.24ZM194.46,210.28c6.87-1.36,17.88-2.78,30.33-3.78,14.5-1.17,27.15-1.48,33.65-.97l3.84,37.23c-1.59-.05-3.4-.08-5.47-.08-9,0-20.67.54-32.85,1.53-12.8,1.03-24.61,2.42-33.41,3.89l3.9-37.82ZM264.36,298.07c-11.22,0-25.78.68-40.99,1.9-16.07,1.3-30.89,3.04-41.86,4.88l5-48.44c8.6-1.7,22.31-3.45,37.82-4.7,18.05-1.46,33.81-1.85,41.97-1.22l4.92,47.68c-1.99-.06-4.24-.1-6.85-.1Z"/>
  <path class="cls-1" d="M330.68,0H122.76C54.96,0,0,54.96,0,122.76v207.92c0,67.8,54.96,122.76,122.76,122.76h207.92c67.8,0,122.76-54.96,122.76-122.76V122.76C453.43,54.96,398.47,0,330.68,0ZM374.5,377.68l-65.59-18.58c-24.45,15.25-52.72,23.42-82.25,23.42-41.63,0-80.76-16.21-110.19-45.64-60.76-60.76-60.76-159.63,0-220.39,60.76-60.76,159.63-60.76,220.39,0,29.43,29.43,45.64,68.57,45.64,110.19,0,33.82-10.7,65.99-30.5,92.65l22.49,58.35Z"/>
  <path class="cls-1" d="M736.7,237.4c-1.94-.82-3.94-1.53-5.98-2.2,8.5-4.49,15.32-10.54,20.41-18.19,5.65-8.47,8.47-18.45,8.47-29.95,0-17.14-6.95-30.94-20.85-41.4-13.91-10.45-34.66-15.68-62.25-15.68h-107.26v219.53h113.53c28.85,0,50.7-5.28,65.55-15.84,14.84-10.55,22.27-25.25,22.27-44.06,0-12.75-2.98-23.52-8.94-32.3-5.96-8.78-14.27-15.42-24.93-19.92ZM619.72,168.25h50.49c12.33,0,21.8,2.15,28.38,6.43,6.59,4.29,9.88,10.72,9.88,19.29s-3.29,15.32-9.88,19.6c-6.58,4.29-16.05,6.43-28.38,6.43h-50.49v-51.75ZM708.95,304.83c-6.8,4.29-16.78,6.43-29.95,6.43h-59.27v-54.26h59.27c13.17,0,23.15,2.25,29.95,6.74,6.79,4.5,10.19,11.34,10.19,20.54s-3.4,16.26-10.19,20.54Z"/>
  <path class="cls-1" d="M933.65,196.47c-14.22-12.12-34.18-18.19-59.9-18.19-13.38,0-26.55,1.78-39.52,5.33-12.97,3.56-24.04,8.58-33.24,15.05l17.56,34.18c6.06-4.81,13.43-8.62,22.11-11.45,8.67-2.82,17.51-4.23,26.5-4.23,13.17,0,22.94,2.93,29.32,8.78,6.38,5.85,9.57,14.01,9.57,24.46h-38.89c-17.15,0-31.05,2.15-41.71,6.43-10.66,4.29-18.46,10.19-23.37,17.72-4.92,7.53-7.37,16.31-7.37,26.34s2.51,18.3,7.53,26.03c5.02,7.74,12.23,13.85,21.64,18.35,9.41,4.49,20.7,6.74,33.87,6.74,14.84,0,26.97-2.82,36.38-8.47,6.37-3.82,11.37-8.88,15.05-15.1v21.06h45.79v-96.28c0-25.72-7.11-44.64-21.33-56.77ZM906.05,296.2c-2.93,7.53-7.63,13.23-14.11,17.09-6.48,3.87-13.8,5.8-21.95,5.8-8.58,0-15.32-1.83-20.23-5.49-4.92-3.65-7.37-8.62-7.37-14.9,0-5.65,2.14-10.35,6.43-14.11,4.28-3.76,12.18-5.65,23.68-5.65h33.56v17.25Z"/>
  <path class="cls-1" d="M1141.74,188.94c-12.65-7.11-26.92-10.66-42.81-10.66-14.22,0-26.66,3.14-37.32,9.41-5.02,2.95-9.5,6.66-13.48,11.05v-81.93h-48.93v232.7h46.73v-19.58c4.22,5.13,9.13,9.37,14.74,12.68,10.66,6.27,23.41,9.41,38.26,9.41,15.89,0,30.16-3.61,42.81-10.82,12.65-7.21,22.68-17.3,30.11-30.26,7.42-12.96,11.13-28.23,11.13-45.79s-3.71-33.14-11.13-46.1c-7.43-12.96-17.46-23-30.11-30.11ZM1127.62,290.09c-3.87,7.01-8.99,12.39-15.37,16.15-6.38,3.76-13.64,5.65-21.8,5.65s-15.47-1.88-21.95-5.65c-6.48-3.76-11.6-9.14-15.37-16.15-3.76-7-5.65-15.31-5.65-24.93s1.88-18.19,5.65-25.09c3.76-6.9,8.88-12.23,15.37-15.99,6.48-3.76,13.8-5.65,21.95-5.65s15.42,1.88,21.8,5.65c6.38,3.76,11.49,9.09,15.37,15.99,3.87,6.9,5.8,15.26,5.8,25.09s-1.94,17.93-5.8,24.93Z"/>
  <path class="cls-1" d="M1337.74,188.79c-13.28-7-28.18-10.51-44.69-10.51s-32.51,3.71-46.1,11.13c-13.59,7.42-24.3,17.67-32.15,30.73-7.84,13.07-11.76,28.07-11.76,45s3.97,31.63,11.92,44.69c7.94,13.07,19.18,23.36,33.71,30.89,14.53,7.53,31.41,11.29,50.65,11.29,15.26,0,28.75-2.35,40.46-7.06,11.71-4.7,21.43-11.45,29.17-20.23l-26.03-28.23c-5.65,5.44-11.87,9.52-18.66,12.23-6.8,2.72-14.69,4.08-23.68,4.08-10.04,0-18.77-1.83-26.19-5.49-7.42-3.65-13.17-8.99-17.25-15.99-2.21-3.8-3.8-7.94-4.82-12.39h127.6c.21-2.09.42-4.34.63-6.74.21-2.4.31-4.55.31-6.43,0-18.19-3.87-33.82-11.6-46.89-7.74-13.06-18.25-23.1-31.52-30.11ZM1251.71,250.41c.81-5.25,2.35-10.02,4.65-14.27,3.55-6.59,8.52-11.71,14.9-15.37,6.37-3.66,13.74-5.49,22.11-5.49s15.68,1.83,21.95,5.49c6.27,3.66,11.18,8.73,14.74,15.21,2.36,4.3,3.91,9.12,4.71,14.43h-83.06Z"/>
  <rect class="cls-1" x="1413.48" y="116.81" width="48.93" height="232.7"/>
  <path class="cls-1" d="M1554.29,110.07c-5.65-4.91-12.97-7.37-21.95-7.37s-16.31,2.62-21.95,7.84c-5.64,5.23-8.47,11.71-8.47,19.44s2.82,14.22,8.47,19.44c5.65,5.23,12.96,7.84,21.95,7.84s16.57-2.67,22.11-8c5.54-5.33,8.31-12.07,8.31-20.23,0-7.73-2.82-14.06-8.47-18.97Z"/>
  <rect class="cls-1" x="1507.88" y="180.79" width="48.93" height="168.73"/>
  <path class="cls-1" d="M1740.74,186.28c-10.56-5.33-22.53-8-35.91-8-14.43,0-27.28,3.03-38.57,9.09-6.67,3.58-12.41,8.1-17.25,13.51v-20.09h-46.73v168.73h48.93v-83.42c0-10.45,1.72-19.02,5.17-25.72,3.45-6.69,8.26-11.65,14.43-14.9,6.16-3.24,13.12-4.86,20.85-4.86,10.87,0,19.29,3.24,25.25,9.72,5.96,6.48,8.94,16.52,8.94,30.11v89.07h48.92v-96.59c0-17.14-3.03-31.2-9.09-42.18-6.07-10.98-14.38-19.13-24.93-24.46Z"/>
  <polygon class="cls-1" points="1927.47 252.23 1997.74 180.79 1939.41 180.79 1867.91 248.59 1867.91 116.81 1818.98 116.81 1818.98 349.52 1867.91 349.52 1867.91 306.69 1891.54 283.45 1944.74 349.52 2004.02 349.52 1927.47 252.23"/>
</svg>